<svg version="1.2" xmlns="http://www.w3.org/2000/svg" viewBox="67 33.00000000000001 382 265.00000000000006" width="382" height="266">
	<style>
		.s0 { fill: #e8e9ae } 
		.s1 { fill: #76b58b } 
		.s2 { fill: #074d40 } 
	</style>
	<g id="Layer 1">
		<g id="&lt;Group&gt;">
			<g id="&lt;Group&gt;">
				<path id="&lt;Path&gt;" class="s0" d="m76.66 163.74c0-68.57 55.77-124.35 124.35-124.35 20.38 0 40.51 5.04 58.4 14.6 17.92-9.56 38.04-14.6 58.43-14.6 68.55 0 124.33 55.78 124.33 124.35 0 68.56-55.78 124.32-124.33 124.32-20.39 0-40.51-5.02-58.43-14.58-17.89 9.56-38.02 14.58-58.4 14.58-68.58 0-124.35-55.76-124.35-124.32z"/>
				<g id="&lt;Group&gt;">
					<path id="&lt;Path&gt;" class="s1" d="m258.79 255.2c17.01 11 37.28 17.39 59.05 17.39 51.12 0 94.03-35.27 105.71-82.81l-79.25-0.04c-2.39 0-6.12 0.87-8.28 1.92l-25.56 12.47c-2.17 1.07-5.66 2.15-7.79 2.39-0.98 0.14-1.85-0.09-2.55-0.57-8.54 20.29-23.05 37.42-41.33 49.25z"/>
					<path id="&lt;Path&gt;" class="s1" d="m303.87 131.81q-0.1 0.15-0.2 0.3c0.32-0.43 0.51-1.05 0.5-1.87l-0.1-8.93c-0.02-2.41 0.52-5.71 1.2-7.35 0.69-1.64 2.43-2.29 3.84-1.43 1.43 0.85 3.93 2.98 5.54 4.75l6.03 6.61c1.61 1.77 4 1.58 5.29-0.43l3.17-4.94c1.28-2.03 3.75-4.34 5.43-5.14 1.68-0.79 3.97 0.32 5.09 2.44l0.56 1.09c1.12 2.13 2.51 5.78 3.1 8.12l4.58 18.12c0.6 2.31 3.03 4.18 5.44 4.14l72.11 0.02c-7.91-52.32-53.07-92.43-107.61-92.43-21.77 0-42.03 6.4-59.04 17.39 21.29 13.77 37.48 34.79 45.07 59.54z"/>
					<path id="&lt;Path&gt;" class="s1" d="m258.8 72.27c-17-11-37.26-17.39-59.03-17.39-51.14 0-94.04 35.27-105.72 82.81l79.25 0.04c2.39 0 6.12-0.87 8.27-1.92l25.57-12.49c2.16-1.06 5.67-2.14 7.77-2.39 1-0.13 1.9 0.11 2.57 0.57 8.54-20.26 23.05-37.4 41.32-49.23z"/>
					<path id="&lt;Path&gt;" class="s1" d="m213.75 195.65q0.07-0.18 0.2-0.35-0.51 0.65-0.52 1.93l0.09 8.93c0.04 2.4-0.52 5.7-1.2 7.35-0.68 1.63-2.41 2.28-3.83 1.44-1.42-0.84-3.92-3-5.55-4.77l-6.01-6.61c-1.63-1.77-4-1.57-5.31 0.45l-3.16 4.94c-1.3 2.02-3.73 4.32-5.42 5.11-1.71 0.81-3.99-0.3-5.1-2.42l-0.56-1.09c-1.13-2.15-2.51-5.79-3.1-8.12l-4.58-18.11c-0.58-2.34-3.04-4.2-5.43-4.15l-72.13-0.04c7.92 52.33 53.09 92.45 107.63 92.45 21.77 0 42.02-6.39 59.02-17.39-21.28-13.79-37.47-34.78-45.04-59.55z"/>
					<path id="&lt;Path&gt;" class="s2" d="m258.79 255.2c18.28-11.83 32.79-28.96 41.33-49.25q-0.3-0.19-0.51-0.43l-0.01-0.02q-0.22-0.23-0.38-0.53-0.02-0.02-0.04-0.05-0.13-0.24-0.2-0.53-0.02-0.07-0.04-0.11-0.1-0.34-0.09-0.72c0-1.89 0.61-5.31 1.39-7.59l4.11-12.09c0.76-2.27-0.3-5.12-2.35-6.35l-29.55-17.47c-2.06-1.21-4.93-3.8-6.35-5.72l-0.2-0.26c-1.43-1.94-0.68-3.95 1.68-4.48l0.11-0.02c2.35-0.52 6.21-0.82 8.63-0.67l13.17 0.8c2.4 0.14 3.33-1.39 2.04-3.44l-7.08-11.24c-1.28-2.02-2.45-5.62-2.61-8-0.16-2.38 1.62-3.86 3.95-3.28 2.32 0.58 5.85 2.18 7.82 3.54l7.01 4.84c0.22 0.16 0.44 0.27 0.65 0.38q0.1 0.01 0.18 0.06 0.23 0.08 0.44 0.14 0.1 0.02 0.18 0.05 0.27 0.02 0.51 0.01 0.11-0.02 0.18-0.05c0.11-0.01 0.19-0.05 0.28-0.09 0.08-0.02 0.13-0.07 0.21-0.11q0.09-0.08 0.18-0.14 0.11-0.1 0.19-0.2 0.03-0.04 0.05-0.07 0.1-0.15 0.2-0.3c-7.59-24.75-23.78-45.77-45.07-59.54-18.27 11.83-32.78 28.97-41.32 49.23 0.18 0.14 0.37 0.28 0.51 0.46q0.25 0.24 0.4 0.52 0.01 0.01 0.02 0.05 0.14 0.25 0.21 0.55 0.02 0.05 0.06 0.11 0.07 0.33 0.07 0.71c0 1.9-0.62 5.3-1.4 7.59l-4.11 12.11c-0.77 2.24 0.28 5.11 2.36 6.34l29.56 17.46c2.05 1.22 4.92 3.8 6.35 5.73l0.18 0.26c1.43 1.94 0.68 3.96-1.67 4.46l-0.11 0.04c-2.34 0.51-6.22 0.83-8.62 0.67l-13.18-0.81c-2.4-0.14-3.31 1.4-2.03 3.44l7.06 11.24c1.28 2.02 2.45 5.63 2.62 8 0.15 2.38-1.61 3.86-3.94 3.29-2.32-0.6-5.85-2.18-7.82-3.55l-7.03-4.83q-0.33-0.24-0.65-0.37-0.09-0.04-0.18-0.08c-0.14-0.06-0.29-0.09-0.43-0.14q-0.11-0.03-0.18-0.03-0.28-0.04-0.52-0.02c-0.06 0-0.1 0.03-0.17 0.05q-0.14 0.03-0.29 0.08-0.1 0.05-0.2 0.12c-0.07 0.03-0.12 0.1-0.19 0.14q-0.09 0.08-0.19 0.2-0.02 0.01-0.02 0.01-0.13 0.17-0.2 0.35c7.57 24.77 23.76 45.76 45.04 59.55z"/>
				</g>
			</g>
			<g id="&lt;Group&gt;">
				<path id="&lt;Compound Path&gt;" class="s2" d="m161.59 355.33v-28.95c0 0 0-0.62 0.56-0.62h10.09c0 1.92 0 2.08-0.41 2.08h-7.96v10.2h7.44c0 1.83 0 2.22-0.51 2.22h-6.93v14.51c0 0 0.05 0.56-0.51 0.56z"/>
				<path id="&lt;Compound Path&gt;" class="s2" d="m186.13 346.35c0 3.96 0.55 7.22 5.27 7.22 1.89 0 3.9-0.47 4.73-0.91v-26.33c0-0.57 0.08-0.57 2.36-0.57v28.51c-1.09 0.72-4 1.48-7.09 1.48-6.91 0-7.64-4.44-7.64-9.51v-19.86c0-0.62 0-0.62 2.37-0.62z"/>
				<path id="&lt;Compound Path&gt;" class="s2" d="m218.79 343.46c-0.45-1.1-3.79-9.68-5.14-13.22 0.08 3.13 0.17 13.31 0.17 14.19v10.34c0 0.56 0 0.56-2.28 0.56v-28.95c0-0.44 0.17-0.62 0.56-0.62h1.63l5.06 11.65c0.48 1.32 3.98 10.18 5.24 13.36-0.16-2.54-0.2-13.39-0.2-14.41v-9.98c0-0.62 0.04-0.62 2.32-0.62v29.01c0 0.35-0.21 0.56-0.56 0.56h-1.59z"/>
				<path id="&lt;Compound Path&gt;" class="s2" d="m244.54 325.76c5.41 0 8.19 3.42 8.19 13.23 0 13.31-3.58 16.34-8.36 16.34h-5.11v-28.85c0-0.41 0.23-0.72 1.07-0.72zm-0.04 2.17h-2.9v25.17h2.82c2.96 0 5.79-1.79 5.79-14.28 0-8.08-1.81-10.89-5.71-10.89z"/>
				<path id="&lt;Compound Path&gt;" class="s2" d="m274.98 347.18h-8.79l-1.92 7.68c-0.09 0.44-0.3 0.52-1.14 0.52-0.26 0-0.84 0-1.44-0.08l7.97-29.32q0.09-0.37 0.81-0.37c0.38 0 0.75 0.04 1.01 0.12l7.98 29.04c0.08 0.45-0.09 0.61-0.96 0.61-0.3 0-0.8 0-1.39-0.05zm-8.22-2.14h7.63l-2.03-7.84c-0.84-3.28-1.64-6.73-1.76-8.26-0.17 1.53-0.94 4.98-1.81 8.26z"/>
				<path id="&lt;Compound Path&gt;" class="s2" d="m301.11 327.41c0 0.56-0.2 1.11-0.42 1.44-0.33-0.29-1.6-1.3-3.16-1.3-2.96 0-6.13 1.68-6.13 14.42 0 9.67 2.45 11.3 5.02 11.3 1.96 0 3.68-1.01 4.41-1.87 0.2 0.39 0.41 0.93 0.41 1.48 0 1.32-2.23 2.91-5.23 2.91-3.43 0-7.01-1.09-7.01-13.84 0-14.88 4.44-16.66 8.19-16.66 2.79 0 3.92 1.28 3.92 2.12z"/>
				<path id="&lt;Compound Path&gt;" class="s2" d="m312.98 326.95c0-1.19 0.08-1.19 2.37-1.19v29.01c0 0.56-0.06 0.56-2.37 0.56z"/>
				<path id="&lt;Compound Path&gt;" class="s2" d="m335.82 325.35c5.47 0 7.51 3.71 7.51 14.96 0 11.39-2.4 15.44-7.98 15.44-5.41 0-7.64-3.45-7.64-15.42 0-10.97 2.66-14.98 8.11-14.98zm-0.38 28c3.88 0 5.41-3.52 5.41-13.09 0-9.34-1.36-12.55-5.12-12.55-3.73 0-5.46 3.51-5.46 13.34 0 8.95 1.4 12.3 5.17 12.3z"/>
				<path id="&lt;Compound Path&gt;" class="s2" d="m362.96 343.46c-0.47-1.1-3.8-9.68-5.15-13.22 0.09 3.13 0.17 13.31 0.17 14.19v10.34c0 0.56 0 0.56-2.29 0.56v-28.95c0-0.44 0.17-0.62 0.56-0.62h1.65l5.06 11.65c0.46 1.32 3.96 10.18 5.25 13.36-0.18-2.54-0.23-13.39-0.23-14.41v-9.98c0-0.62 0.05-0.62 2.32-0.62v29.01c0 0.35-0.2 0.56-0.55 0.56h-1.61z"/>
				<path id="&lt;Compound Path&gt;" class="s2" d="m106.45 394.04c2.43-1.5 5.95-2.45 9.26-2.45 5.94 0 10.08 2.45 10.08 12.71 0 16.78-3.7 19.85-8.21 19.85-1.87 0-3.13-0.38-4.12-1.2v12.35c-1.06 0.35-2.51 0.55-3.63 0.55-2.45 0-3.38-0.63-3.38-3.07zm7.01 22.79c0.57 0.81 1.06 1.12 1.74 1.12 1.31 0 2.7-1.3 2.7-13.21 0-6.01-0.74-7.12-2.57-7.12-0.7 0-1.38 0.3-1.87 0.75z"/>
				<path id="&lt;Compound Path&gt;" class="s2" d="m150.83 421.76c-2.01 1.19-5.52 2.39-9.27 2.39-7.51 0-9.46-3.51-9.46-9.39v-21.28c0-1.26-0.06-1.26 7.27-1.26v22.97c0 1.95 0.3 2.95 2.07 2.95 0.81 0 1.68-0.19 2.37-0.82v-23.84c0-1.26-0.11-1.26 7.02-1.26z"/>
				<path id="&lt;Compound Path&gt;" class="s2" d="m176.43 401.79c0 3.02-0.25 6.46-0.87 8.9-3.07 0.62-7.76 0.87-10.82 0.93 0.18 3.96 1.05 5.7 4.06 5.7 2.26 0 4.44-0.67 6.63-1.74 0.37 1.25 0.55 3.24 0.55 4.7 0 2.49-4 3.87-8.88 3.87-5.7 0-9.7-2.88-9.7-14.78 0-15.13 5.14-17.78 11.01-17.78 5.01 0 8.02 2.96 8.02 10.2zm-11.76 4.33c1.75 0 3.69-0.13 4.62-0.55 0.25-0.76 0.33-2.26 0.33-3.26 0-4-0.56-4.63-2.13-4.63-1.97 0-2.66 2.73-2.82 8.44z"/>
				<path id="&lt;Compound Path&gt;" class="s2" d="m182.89 393.66c1.92-0.93 6.55-2.07 9.67-2.07 6.34 0 9.03 1.84 9.03 8.07v22.61c0 1.25-0.17 1.25-7.27 1.25v-21.67c0-3.25-0.31-4.23-2.05-4.23-0.82 0-1.7 0.23-2.38 0.75v23.9c0 1.25-0.12 1.25-7 1.25z"/>
				<path id="&lt;Compound Path&gt;" class="s2" d="m210.86 398.18h-3.77c0-5.31 0.08-5.96 1.45-5.96h2.32v-9.06c0-2.2 1.38-2.2 7.02-2.2v11.26h5.12c0 5.4-0.06 5.96-1.38 5.96h-3.74v17.01c0 1.46 0 3.01 1.49 3.01 1.12 0 2.06-0.25 3.25-0.8 0.19 0.85 0.43 2 0.43 3.37 0 3-3.31 3.38-5.68 3.38-5.51 0-6.51-3.26-6.51-8.83z"/>
				<path id="&lt;Compound Path&gt;" class="s2" d="m245.99 401.79c0 3.02-0.26 6.46-0.9 8.9-3.06 0.62-7.76 0.87-10.81 0.93 0.17 3.96 1.06 5.7 4.06 5.7 2.24 0 4.45-0.67 6.63-1.74 0.37 1.25 0.56 3.24 0.56 4.7 0 2.49-4 3.87-8.88 3.87-5.71 0-9.7-2.88-9.7-14.78 0-15.13 5.14-17.78 11.01-17.78 5.01 0 8.03 2.96 8.03 10.2zm-11.78 4.33c1.74 0 3.7-0.13 4.62-0.55 0.26-0.76 0.32-2.26 0.32-3.26 0-4-0.57-4.63-2.13-4.63-1.94 0-2.63 2.73-2.81 8.44z"/>
				<path id="&lt;Compound Path&gt;" class="s2" d="m262.88 394.3c-0.44-2.08-0.37-2.08 7.63-2.08l1.12 9.02c0.71 5.38 1.26 14.96 1.26 14.96h0.12c0 0 0.56-9.58 1.18-14.96l0.88-7.63c0.21-1.39 0.21-1.39 7.4-1.39l-6.26 31.3c-1.45 0.25-3.76 0.31-5.08 0.31-1.81 0-2.56-1.36-2.93-3.11z"/>
				<path id="&lt;Compound Path&gt;" class="s2" d="m295.23 422.27c0 1.25-0.06 1.25-7.14 1.25v-28.22c0-3.08 1.38-3.08 7.14-3.08zm-3.02-44.05c2.59 0 3.33 1.18 3.33 4.57 0 3.36-1.31 5.38-3.75 5.38-2.06 0-3.38-1.13-3.38-5.08 0-2.87 1.18-4.87 3.8-4.87z"/>
				<path id="&lt;Compound Path&gt;" class="s2" d="m302.5 393.66c1.94-0.93 6.57-2.07 9.69-2.07 6.34 0 9 1.84 9 8.07v22.61c0 1.25-0.17 1.25-7.24 1.25v-21.67c0-3.25-0.31-4.23-2.07-4.23-0.81 0-1.69 0.23-2.38 0.75v23.9c0 1.25-0.12 1.25-7 1.25z"/>
				<path id="&lt;Compound Path&gt;" class="s2" d="m343.18 398.55c-0.99-0.43-2.63-0.8-3.95-0.8-2.25 0-4.44 1.16-4.44 10.68 0 7.21 0.88 9.52 4.2 9.52 1.31 0 2.99-0.36 4.02-0.87 0.35 1.56 0.55 2.62 0.55 3.69 0 2.06-2.81 3.38-6.82 3.38-6.47 0-9.27-2.62-9.27-15.59 0-15.01 5.93-16.97 11.15-16.97 3.06 0 5.18 1.21 5.18 3.21 0 0.93-0.13 2.23-0.62 3.75z"/>
				<path id="&lt;Compound Path&gt;" class="s2" d="m368.09 421.76c-2 1.19-5.51 2.39-9.26 2.39-7.52 0-9.46-3.51-9.46-9.39v-21.28c0-1.26-0.05-1.26 7.26-1.26v22.97c0 1.95 0.32 2.95 2.08 2.95 0.79 0 1.68-0.19 2.37-0.82v-23.84c0-1.26-0.12-1.26 7.01-1.26z"/>
				<path id="&lt;Compound Path&gt;" class="s2" d="m382.36 422.27c0 1.25 0 1.25-7 1.25v-42.94c0-3.07 1.31-3.07 7-3.07z"/>
				<path id="&lt;Compound Path&gt;" class="s2" d="m389.81 393.43c0.88-0.7 4.32-1.84 9.34-1.84 5.74 0 7.87 2.02 7.87 7.66v2.93c0 7.19 0 15.34-0.31 19.96-2.11 1.27-5.26 2.01-9.01 2.01-4.63 0-8.9-1.07-8.9-9.77 0-8.58 3.52-10.31 7.21-10.31 0.94 0 2.89 0.18 4 0.93v-4.33c0-1.61-0.68-2.3-2.62-2.3-2.33 0-5.45 0.54-7.51 1.29-0.75-1.41-0.94-3.05-0.94-4.06 0-0.75 0.33-1.74 0.87-2.17zm8.59 15.76c-1.39 0-2.2 0.99-2.2 5 0 3.01 0.44 4.21 1.99 4.21 0.56 0 1.33-0.2 1.72-0.62 0.1-1.41 0.1-5.46 0.1-8.08-0.44-0.38-1.11-0.51-1.61-0.51z"/>
				<path id="&lt;Compound Path&gt;" class="s2" d="m413.92 394.43c2.17-1.5 5.18-2.84 8.7-2.84 3.38 0 4.19 1.02 4.19 3.13 0 0.83-0.12 2.52-0.7 4.07-0.87-0.42-1.68-0.48-2.31-0.48-0.76 0-1.88 0.29-2.69 1l-0.07 22.96c0 1.25 0 1.25-7.12 1.25z"/>
			</g>
		</g>
	</g>
</svg>